{
  "accessors": [
    {
      "bufferView": 2,
      "componentType": 5126,
      "count": 2122,
      "max": [
        2.567864418029785,
        1.7594423294067383,
        3.642232656478882
      ],
      "min": [
        -2.567864418029785,
        -1.8457412719726563,
        -0.029927384108304977
      ],
      "type": "VEC3"
    },
    {
      "bufferView": 2,
      "byteOffset": 25464,
      "componentType": 5126,
      "count": 2122,
      "max": [
        1.0,
        1.0,
        1.0
      ],
      "min": [
        -1.0,
        -1.0,
        -1.0
      ],
      "type": "VEC3"
    },
    {
      "bufferView": 3,
      "componentType": 5126,
      "count": 2122,
      "max": [
        1.0,
        1.0,
        1.0,
        1.0
      ],
      "min": [
        -1.0,
        -1.0,
        -1.0,
        -1.0
      ],
      "type": "VEC4"
    },
    {
      "bufferView": 1,
      "componentType": 5126,
      "count": 2122,
      "max": [
        1.5387992858886719,
        1.2828381061553955
      ],
      "min": [
        -0.5700492858886719,
        -0.3104667365550995
      ],
      "type": "VEC2"
    },
    {
      "bufferView": 1,
      "byteOffset": 16976,
      "componentType": 5126,
      "count": 2122,
      "max": [
        1.5387992858886719,
        1.2828381061553955
      ],
      "min": [
        -0.5700492858886719,
        -0.3104667365550995
      ],
      "type": "VEC2"
    },
    {
      "bufferView": 1,
      "byteOffset": 33952,
      "componentType": 5126,
      "count": 2122,
      "max": [
        1.5387992858886719,
        1.2828381061553955
      ],
      "min": [
        -0.5700492858886719,
        -0.3104667365550995
      ],
      "type": "VEC2"
    },
    {
      "bufferView": 0,
      "componentType": 5125,
      "count": 3204,
      "type": "SCALAR"
    },
    {
      "bufferView": 2,
      "byteOffset": 50928,
      "componentType": 5126,
      "count": 1700,
      "max": [
        2.5287251472473145,
        1.7374849319458008,
        3.6208598613739014
      ],
      "min": [
        -2.5287251472473145,
        -1.737484335899353,
        -0.029927384108304977
      ],
      "type": "VEC3"
    },
    {
      "bufferView": 2,
      "byteOffset": 71328,
      "componentType": 5126,
      "count": 1700,
      "max": [
        1.0,
        1.0,
        0.7943814396858215
      ],
      "min": [
        -1.0,
        -1.0,
        -0.6064704656600952
      ],
      "type": "VEC3"
    },
    {
      "bufferView": 3,
      "byteOffset": 33952,
      "componentType": 5126,
      "count": 1700,
      "max": [
        1.0,
        1.0,
        1.0,
        1.0
      ],
      "min": [
        -1.0,
        -1.0,
        -1.0,
        -1.0
      ],
      "type": "VEC4"
    },
    {
      "bufferView": 1,
      "byteOffset": 50928,
      "componentType": 5126,
      "count": 1700,
      "max": [
        0.996816873550415,
        0.9957392811775208
      ],
      "min": [
        0.015346347354352474,
        0.003574434667825699
      ],
      "type": "VEC2"
    },
    {
      "bufferView": 1,
      "byteOffset": 64528,
      "componentType": 5126,
      "count": 1700,
      "max": [
        0.996816873550415,
        0.9957392811775208
      ],
      "min": [
        0.015346347354352474,
        0.003574434667825699
      ],
      "type": "VEC2"
    },
    {
      "bufferView": 1,
      "byteOffset": 78128,
      "componentType": 5126,
      "count": 1700,
      "max": [
        0.996816873550415,
        0.9957392811775208
      ],
      "min": [
        0.015346347354352474,
        0.003574434667825699
      ],
      "type": "VEC2"
    },
    {
      "bufferView": 0,
      "byteOffset": 12816,
      "componentType": 5125,
      "count": 3744,
      "type": "SCALAR"
    },
    {
      "bufferView": 2,
      "byteOffset": 91728,
      "componentType": 5126,
      "count": 3554,
      "max": [
        2.5478317737579346,
        1.7374849319458008,
        3.575843334197998
      ],
      "min": [
        -2.5478317737579346,
        -1.737484335899353,
        -0.029927384108304977
      ],
      "type": "VEC3"
    },
    {
      "bufferView": 2,
      "byteOffset": 134376,
      "componentType": 5126,
      "count": 3554,
      "max": [
        1.0,
        1.0,
        1.0
      ],
      "min": [
        -1.0,
        -1.0,
        -1.0
      ],
      "type": "VEC3"
    },
    {
      "bufferView": 3,
      "byteOffset": 61152,
      "componentType": 5126,
      "count": 3554,
      "max": [
        1.0,
        1.0,
        1.0,
        1.0
      ],
      "min": [
        -1.0,
        -1.0,
        -1.0,
        -1.0
      ],
      "type": "VEC4"
    },
    {
      "bufferView": 1,
      "byteOffset": 91728,
      "componentType": 5126,
      "count": 3554,
      "max": [
        1.0171034336090088,
        1.4273216724395752
      ],
      "min": [
        -0.026169218122959137,
        -0.4828214645385742
      ],
      "type": "VEC2"
    },
    {
      "bufferView": 1,
      "byteOffset": 120160,
      "componentType": 5126,
      "count": 3554,
      "max": [
        1.0171034336090088,
        1.4273216724395752
      ],
      "min": [
        -0.026169218122959137,
        -0.4828214645385742
      ],
      "type": "VEC2"
    },
    {
      "bufferView": 1,
      "byteOffset": 148592,
      "componentType": 5126,
      "count": 3554,
      "max": [
        1.0171034336090088,
        1.4273216724395752
      ],
      "min": [
        -0.026169218122959137,
        -0.4828214645385742
      ],
      "type": "VEC2"
    },
    {
      "bufferView": 0,
      "byteOffset": 27792,
      "componentType": 5125,
      "count": 5430,
      "type": "SCALAR"
    },
    {
      "bufferView": 2,
      "byteOffset": 177024,
      "componentType": 5126,
      "count": 2104,
      "max": [
        2.1032485961914063,
        1.2484132051467896,
        2.0061869621276855
      ],
      "min": [
        -2.299806594848633,
        -1.4498564004898071,
        0.1286149024963379
      ],
      "type": "VEC3"
    },
    {
      "bufferView": 2,
      "byteOffset": 202272,
      "componentType": 5126,
      "count": 2104,
      "max": [
        1.0,
        1.0,
        1.0
      ],
      "min": [
        -1.0,
        -1.0,
        -1.0
      ],
      "type": "VEC3"
    },
    {
      "bufferView": 3,
      "byteOffset": 118016,
      "componentType": 5126,
      "count": 2104,
      "max": [
        1.0,
        1.0,
        1.0,
        1.0
      ],
      "min": [
        -1.0,
        -1.0,
        -1.0,
        -1.0
      ],
      "type": "VEC4"
    },
    {
      "bufferView": 1,
      "byteOffset": 177024,
      "componentType": 5126,
      "count": 2104,
      "max": [
        0.9999045133590698,
        0.9960066676139832
      ],
      "min": [
        9.556491568218917e-05,
        -0.1025606319308281
      ],
      "type": "VEC2"
    },
    {
      "bufferView": 1,
      "byteOffset": 193856,
      "componentType": 5126,
      "count": 2104,
      "max": [
        0.9999045133590698,
        0.9960066676139832
      ],
      "min": [
        9.556491568218917e-05,
        -0.1025606319308281
      ],
      "type": "VEC2"
    },
    {
      "bufferView": 1,
      "byteOffset": 210688,
      "componentType": 5126,
      "count": 2104,
      "max": [
        0.9999045133590698,
        0.9960066676139832
      ],
      "min": [
        9.556491568218917e-05,
        -0.1025606319308281
      ],
      "type": "VEC2"
    },
    {
      "bufferView": 0,
      "byteOffset": 49512,
      "componentType": 5125,
      "count": 3300,
      "type": "SCALAR"
    },
    {
      "bufferView": 2,
      "byteOffset": 227520,
      "componentType": 5126,
      "count": 32,
      "max": [
        2.567864418029785,
        1.7630791664123535,
        3.649819850921631
      ],
      "min": [
        -2.567864418029785,
        -1.7630791664123535,
        2.300955057144165
      ],
      "type": "VEC3"
    },
    {
      "bufferView": 2,
      "byteOffset": 227904,
      "componentType": 5126,
      "count": 32,
      "max": [
        1.0,
        0.7952452898025513,
        0.795258641242981
      ],
      "min": [
        -1.0,
        -0.795275092124939,
        -0.6062878966331482
      ],
      "type": "VEC3"
    },
    {
      "bufferView": 3,
      "byteOffset": 151680,
      "componentType": 5126,
      "count": 32,
      "max": [
        1.0,
        0.6470083594322205,
        0.79526287317276,
        1.0
      ],
      "min": [
        0.0,
        -0.6470083594322205,
        -0.7952576875686646,
        -1.0
      ],
      "type": "VEC4"
    },
    {
      "bufferView": 1,
      "byteOffset": 227520,
      "componentType": 5126,
      "count": 32,
      "max": [
        0.9975073337554932,
        0.9979438781738281
      ],
      "min": [
        0.002484530210494995,
        0.002493053674697876
      ],
      "type": "VEC2"
    },
    {
      "bufferView": 1,
      "byteOffset": 227776,
      "componentType": 5126,
      "count": 32,
      "max": [
        0.9975073337554932,
        0.9979438781738281
      ],
      "min": [
        0.002484530210494995,
        0.002493053674697876
      ],
      "type": "VEC2"
    },
    {
      "bufferView": 1,
      "byteOffset": 228032,
      "componentType": 5126,
      "count": 32,
      "max": [
        0.9975073337554932,
        0.9979438781738281
      ],
      "min": [
        0.002484530210494995,
        0.002493053674697876
      ],
      "type": "VEC2"
    },
    {
      "bufferView": 0,
      "byteOffset": 62712,
      "componentType": 5125,
      "count": 48,
      "type": "SCALAR"
    },
    {
      "bufferView": 2,
      "byteOffset": 228288,
      "componentType": 5126,
      "count": 32,
      "max": [
        -0.3361397385597229,
        0.41279101371765137,
        1.8761876821517944
      ],
      "min": [
        -2.218665838241577,
        -1.3689191341400146,
        0.979451060295105
      ],
      "type": "VEC3"
    },
    {
      "bufferView": 2,
      "byteOffset": 228672,
      "componentType": 5126,
      "count": 32,
      "max": [
        1.0,
        1.0,
        0.0
      ],
      "min": [
        -1.0,
        -1.0,
        0.0
      ],
      "type": "VEC3"
    },
    {
      "bufferView": 1,
      "byteOffset": 228288,
      "componentType": 5126,
      "count": 32,
      "max": [
        1.9888956546783447,
        0.9902298450469971
      ],
      "min": [
        0.009112179279327393,
        0.009320199489593506
      ],
      "type": "VEC2"
    },
    {
      "bufferView": 1,
      "byteOffset": 228544,
      "componentType": 5126,
      "count": 32,
      "max": [
        1.9888956546783447,
        0.9902298450469971
      ],
      "min": [
        0.009112179279327393,
        0.009320199489593506
      ],
      "type": "VEC2"
    },
    {
      "bufferView": 0,
      "byteOffset": 62904,
      "componentType": 5125,
      "count": 48,
      "type": "SCALAR"
    },
    {
      "bufferView": 2,
      "byteOffset": 229056,
      "componentType": 5126,
      "count": 404,
      "max": [
        0.8382262587547302,
        0.06534875184297562,
        0.15223288536071777
      ],
      "min": [
        -0.0009587407112121582,
        0.004999389871954918,
        -1.5506007671356201
      ],
      "type": "VEC3"
    },
    {
      "bufferView": 2,
      "byteOffset": 233904,
      "componentType": 5126,
      "count": 404,
      "max": [
        1.0,
        1.0,
        1.0
      ],
      "min": [
        -1.0,
        -1.0,
        -1.0
      ],
      "type": "VEC3"
    },
    {
      "bufferView": 3,
      "byteOffset": 152192,
      "componentType": 5126,
      "count": 404,
      "max": [
        1.0,
        1.0,
        1.0,
        1.0
      ],
      "min": [
        -1.0,
        -1.0,
        -1.0,
        1.0
      ],
      "type": "VEC4"
    },
    {
      "bufferView": 1,
      "byteOffset": 228800,
      "componentType": 5126,
      "count": 404,
      "max": [
        0.9593350291252136,
        0.987973690032959
      ],
      "min": [
        0.05692890286445618,
        -0.007019989192485809
      ],
      "type": "VEC2"
    },
    {
      "bufferView": 1,
      "byteOffset": 232032,
      "componentType": 5126,
      "count": 404,
      "max": [
        0.9593350291252136,
        0.987973690032959
      ],
      "min": [
        0.05692890286445618,
        -0.007019989192485809
      ],
      "type": "VEC2"
    },
    {
      "bufferView": 1,
      "byteOffset": 235264,
      "componentType": 5126,
      "count": 404,
      "max": [
        0.9593350291252136,
        0.987973690032959
      ],
      "min": [
        0.05692890286445618,
        -0.007019989192485809
      ],
      "type": "VEC2"
    },
    {
      "bufferView": 0,
      "byteOffset": 63096,
      "componentType": 5125,
      "count": 684,
      "type": "SCALAR"
    },
    {
      "bufferView": 2,
      "byteOffset": 238752,
      "componentType": 5126,
      "count": 5505,
      "max": [
        0.7917552590370178,
        0.08008524775505066,
        0.05849820375442505
      ],
      "min": [
        -0.00838392972946167,
        -0.03517576679587364,
        -1.4531012773513794
      ],
      "type": "VEC3"
    },
    {
      "bufferView": 2,
      "byteOffset": 304812,
      "componentType": 5126,
      "count": 5505,
      "max": [
        1.0,
        1.0,
        1.0
      ],
      "min": [
        -1.0,
        -1.0,
        -1.0
      ],
      "type": "VEC3"
    },
    {
      "bufferView": 1,
      "byteOffset": 238496,
      "componentType": 5126,
      "count": 5505,
      "max": [
        1.9972995519638062,
        0.9923843741416931
      ],
      "min": [
        0.002702908357605338,
        0.002705069025978446
      ],
      "type": "VEC2"
    },
    {
      "bufferView": 1,
      "byteOffset": 282536,
      "componentType": 5126,
      "count": 5505,
      "max": [
        1.9972995519638062,
        0.9923843741416931
      ],
      "min": [
        0.002702908357605338,
        0.002705069025978446
      ],
      "type": "VEC2"
    },
    {
      "bufferView": 0,
      "byteOffset": 65832,
      "componentType": 5125,
      "count": 9870,
      "type": "SCALAR"
    }
  ],
  "asset": {
    "extras": {
      "author": "donnichols (https://sketchfab.com/donnichols)",
      "license": "CC-BY-4.0 (http://creativecommons.org/licenses/by/4.0/)",
      "source": "https://sketchfab.com/3d-models/wooden-log-cabin-21bf3df011b147598cdb43fea839cef7",
      "title": "Wooden Log Cabin"
    },
    "generator": "Sketchfab-15.87.0",
    "version": "2.0"
  },
  "bufferViews": [
    {
      "buffer": 0,
      "byteLength": 105312,
      "name": "floatBufferViews",
      "target": 34963
    },
    {
      "buffer": 0,
      "byteLength": 326576,
      "byteOffset": 105312,
      "byteStride": 8,
      "name": "floatBufferViews",
      "target": 34962
    },
    {
      "buffer": 0,
      "byteLength": 370872,
      "byteOffset": 431888,
      "byteStride": 12,
      "name": "floatBufferViews",
      "target": 34962
    },
    {
      "buffer": 0,
      "byteLength": 158656,
      "byteOffset": 802760,
      "byteStride": 16,
      "name": "floatBufferViews",
      "target": 34962
    }
  ],
  "buffers": [
    {
      "byteLength": 961416,
      "uri": "scene.bin"
    }
  ],
  "images": [
    {
      "uri": "textures/Wood1b_baseColor.jpeg"
    },
    {
      "uri": "textures/Wood1b_normal.png"
    },
    {
      "uri": "textures/WoodEnds_baseColor.jpeg"
    },
    {
      "uri": "textures/WoodEnds_metallicRoughness.png"
    },
    {
      "uri": "textures/WoodEnds_normal.png"
    },
    {
      "uri": "textures/Wood1a_baseColor.jpeg"
    },
    {
      "uri": "textures/Wood2_baseColor.jpeg"
    },
    {
      "uri": "textures/Wood2_metallicRoughness.png"
    },
    {
      "uri": "textures/Wood2_normal.png"
    },
    {
      "uri": "textures/Roof_baseColor.jpeg"
    },
    {
      "uri": "textures/Roof_metallicRoughness.png"
    },
    {
      "uri": "textures/Roof_normal.png"
    },
    {
      "uri": "textures/Glass_baseColor.png"
    },
    {
      "uri": "textures/Glass_metallicRoughness.png"
    },
    {
      "uri": "textures/Elements_baseColor.jpeg"
    },
    {
      "uri": "textures/Elements_metallicRoughness.png"
    }
  ],
  "materials": [
    {
      "doubleSided": true,
      "name": "Wood1b",
      "normalTexture": {
        "index": 1
      },
      "pbrMetallicRoughness": {
        "baseColorTexture": {
          "index": 0
        },
        "metallicFactor": 0.0,
        "roughnessFactor": 0.8211145618000169
      }
    },
    {
      "doubleSided": true,
      "name": "WoodEnds",
      "normalTexture": {
        "index": 4
      },
      "pbrMetallicRoughness": {
        "baseColorTexture": {
          "index": 2
        },
        "metallicFactor": 0.0,
        "metallicRoughnessTexture": {
          "index": 3
        }
      }
    },
    {
      "doubleSided": true,
      "name": "Wood1a",
      "normalTexture": {
        "index": 1
      },
      "pbrMetallicRoughness": {
        "baseColorTexture": {
          "index": 5
        },
        "metallicFactor": 0.0,
        "roughnessFactor": 0.8211145618000169
      }
    },
    {
      "doubleSided": true,
      "name": "Wood2",
      "normalTexture": {
        "index": 8
      },
      "pbrMetallicRoughness": {
        "baseColorTexture": {
          "index": 6
        },
        "metallicFactor": 0.0,
        "metallicRoughnessTexture": {
          "index": 7
        }
      }
    },
    {
      "doubleSided": true,
      "name": "Roof",
      "normalTexture": {
        "index": 11
      },
      "pbrMetallicRoughness": {
        "baseColorTexture": {
          "index": 9
        },
        "metallicFactor": 0.0,
        "metallicRoughnessTexture": {
          "index": 10
        }
      }
    },
    {
      "alphaMode": "BLEND",
      "name": "Glass",
      "pbrMetallicRoughness": {
        "baseColorFactor": [
          1.0,
          1.0,
          1.0,
          0.5002842480953857
        ],
        "baseColorTexture": {
          "index": 12
        },
        "metallicFactor": 0.0,
        "metallicRoughnessTexture": {
          "index": 13
        }
      }
    },
    {
      "doubleSided": true,
      "name": "Elements",
      "pbrMetallicRoughness": {
        "baseColorTexture": {
          "index": 14
        },
        "metallicRoughnessTexture": {
          "index": 15
        }
      }
    }
  ],
  "meshes": [
    {
      "name": "Base_Wood1b_0",
      "primitives": [
        {
          "attributes": {
            "NORMAL": 1,
            "POSITION": 0,
            "TANGENT": 2,
            "TEXCOORD_0": 3,
            "TEXCOORD_1": 4,
            "TEXCOORD_2": 5
          },
          "indices": 6,
          "material": 0,
          "mode": 4
        }
      ]
    },
    {
      "name": "Base_WoodEnds_0",
      "primitives": [
        {
          "attributes": {
            "NORMAL": 8,
            "POSITION": 7,
            "TANGENT": 9,
            "TEXCOORD_0": 10,
            "TEXCOORD_1": 11,
            "TEXCOORD_2": 12
          },
          "indices": 13,
          "material": 1,
          "mode": 4
        }
      ]
    },
    {
      "name": "Base_Wood1a_0",
      "primitives": [
        {
          "attributes": {
            "NORMAL": 15,
            "POSITION": 14,
            "TANGENT": 16,
            "TEXCOORD_0": 17,
            "TEXCOORD_1": 18,
            "TEXCOORD_2": 19
          },
          "indices": 20,
          "material": 2,
          "mode": 4
        }
      ]
    },
    {
      "name": "Base_Wood2_0",
      "primitives": [
        {
          "attributes": {
            "NORMAL": 22,
            "POSITION": 21,
            "TANGENT": 23,
            "TEXCOORD_0": 24,
            "TEXCOORD_1": 25,
            "TEXCOORD_2": 26
          },
          "indices": 27,
          "material": 3,
          "mode": 4
        }
      ]
    },
    {
      "name": "Base_Roof_0",
      "primitives": [
        {
          "attributes": {
            "NORMAL": 29,
            "POSITION": 28,
            "TANGENT": 30,
            "TEXCOORD_0": 31,
            "TEXCOORD_1": 32,
            "TEXCOORD_2": 33
          },
          "indices": 34,
          "material": 4,
          "mode": 4
        }
      ]
    },
    {
      "name": "Base_Glass_0",
      "primitives": [
        {
          "attributes": {
            "NORMAL": 36,
            "POSITION": 35,
            "TEXCOORD_0": 37,
            "TEXCOORD_1": 38
          },
          "indices": 39,
          "material": 5,
          "mode": 4
        }
      ]
    },
    {
      "name": "Door_Wood2_0",
      "primitives": [
        {
          "attributes": {
            "NORMAL": 41,
            "POSITION": 40,
            "TANGENT": 42,
            "TEXCOORD_0": 43,
            "TEXCOORD_1": 44,
            "TEXCOORD_2": 45
          },
          "indices": 46,
          "material": 3,
          "mode": 4
        }
      ]
    },
    {
      "name": "Door_Elements_0",
      "primitives": [
        {
          "attributes": {
            "NORMAL": 48,
            "POSITION": 47,
            "TEXCOORD_0": 49,
            "TEXCOORD_1": 50
          },
          "indices": 51,
          "material": 6,
          "mode": 4
        }
      ]
    }
  ],
  "nodes": [
    {
      "children": [
        1
      ],
      "matrix": [
        1.0,
        0.0,
        0.0,
        0.0,
        0.0,
        2.220446049250313e-16,
        -1.0,
        0.0,
        0.0,
        1.0,
        2.220446049250313e-16,
        0.0,
        0.0,
        0.0,
        0.0,
        1.0
      ],
      "name": "Sketchfab_model"
    },
    {
      "children": [
        2
      ],
      "matrix": [
        1.0,
        0.0,
        0.0,
        0.0,
        0.0,
        0.0,
        1.0,
        0.0,
        0.0,
        -1.0,
        0.0,
        0.0,
        0.0,
        0.0,
        0.0,
        1.0
      ],
      "name": "cabin1115_jpg.fbx"
    },
    {
      "children": [
        3,
        10
      ],
      "name": "RootNode"
    },
    {
      "children": [
        4,
        5,
        6,
        7,
        8,
        9
      ],
      "matrix": [
        100.0,
        0.0,
        0.0,
        0.0,
        0.0,
        -1.629206793918314e-05,
        -99.99999999999868,
        0.0,
        0.0,
        99.99999999999868,
        -1.629206793918314e-05,
        0.0,
        0.0,
        0.0,
        0.0,
        1.0
      ],
      "name": "Base"
    },
    {
      "mesh": 0,
      "name": "Base_Wood1b_0"
    },
    {
      "mesh": 1,
      "name": "Base_WoodEnds_0"
    },
    {
      "mesh": 2,
      "name": "Base_Wood1a_0"
    },
    {
      "mesh": 3,
      "name": "Base_Wood2_0"
    },
    {
      "mesh": 4,
      "name": "Base_Roof_0"
    },
    {
      "mesh": 5,
      "name": "Base_Glass_0"
    },
    {
      "children": [
        11,
        12
      ],
      "matrix": [
        89.0921401977539,
        0.0,
        0.0,
        0.0,
        0.0,
        -1.629206793918314e-05,
        -99.99999999999868,
        0.0,
        0.0,
        99.99999999999868,
        -1.629206793918314e-05,
        0.0,
        107.11099243164063,
        171.9954376220703,
        140.97349548339844,
        1.0
      ],
      "name": "Door"
    },
    {
      "mesh": 6,
      "name": "Door_Wood2_0"
    },
    {
      "mesh": 7,
      "name": "Door_Elements_0"
    }
  ],
  "samplers": [
    {
      "magFilter": 9729,
      "minFilter": 9987,
      "wrapS": 10497,
      "wrapT": 10497
    }
  ],
  "scene": 0,
  "scenes": [
    {
      "name": "Sketchfab_Scene",
      "nodes": [
        0
      ]
    }
  ],
  "textures": [
    {
      "sampler": 0,
      "source": 0
    },
    {
      "sampler": 0,
      "source": 1
    },
    {
      "sampler": 0,
      "source": 2
    },
    {
      "sampler": 0,
      "source": 3
    },
    {
      "sampler": 0,
      "source": 4
    },
    {
      "sampler": 0,
      "source": 5
    },
    {
      "sampler": 0,
      "source": 6
    },
    {
      "sampler": 0,
      "source": 7
    },
    {
      "sampler": 0,
      "source": 8
    },
    {
      "sampler": 0,
      "source": 9
    },
    {
      "sampler": 0,
      "source": 10
    },
    {
      "sampler": 0,
      "source": 11
    },
    {
      "sampler": 0,
      "source": 12
    },
    {
      "sampler": 0,
      "source": 13
    },
    {
      "sampler": 0,
      "source": 14
    },
    {
      "sampler": 0,
      "source": 15
    }
  ]
}
